<svg xmlns="http://www.w3.org/2000/svg" width="32" height="32"><path d="M16 0A16 16 0 0 0 0 16a16 16 0 0 0 16 16 16 16 0 0 0 16-16A16 16 0 0 0 16 0zm-1.21 5.71h1.05l.002.962h-1.053V5.71zm4.892 1.733c.318 0 .584.034.798.1.219.062.447.158.686.291l.06-.236h.87v4.892c0 .935-.213 1.622-.637 2.06-.425.438-1.078.655-1.961.655-.294 0-.581-.02-.861-.062a6.396 6.396 0 0 1-.82-.174v-.95h.048c.152.06.393.134.723.22.33.087.658.132.988.132.317 0 .58-.038.785-.113.208-.077.37-.182.487-.317.115-.127.197-.282.246-.464.049-.183.072-.386.072-.608v-.504a3.58 3.58 0 0 1-.805.504c-.253.11-.577.166-.972.166-.66 0-1.185-.237-1.573-.713-.386-.477-.578-1.15-.578-2.017 0-.474.067-.882.2-1.227a2.82 2.82 0 0 1 .546-.894c.215-.233.476-.414.782-.543.306-.131.611-.198.916-.198zm-4.83.15h.93v5.526h-.93V7.594zm-5.713.005h4.304v.658l-3.232 4.07h3.316v.793H9.07v-.687l3.217-4.059H9.14v-.775zm10.705.68c-.51 0-.912.17-1.207.513-.292.344-.438.842-.438 1.494 0 .62.11 1.09.326 1.408.217.321.578.48 1.082.48.27 0 .539-.051.809-.153.273-.106.522-.245.75-.42V8.588a3.545 3.545 0 0 0-.691-.236 2.784 2.784 0 0 0-.631-.075zm-13.88 8.28h.929v2.786c.29-.24.59-.43.9-.567.31-.134.628-.2.955-.2.594 0 1.048.178 1.361.536.314.361.471.88.471 1.553l.002 3.584h-.93v-3.143c0-.254-.013-.492-.043-.712a1.283 1.283 0 0 0-.164-.524.734.734 0 0 0-.355-.307 1.483 1.483 0 0 0-.602-.103c-.255 0-.52.062-.797.187a3.918 3.918 0 0 0-.795.479v4.123h-.931v-7.691zm12.446 0h.928v7.692h-.928v-7.691zm5.516 2.016c.665 0 1.18.253 1.549.758.373.5.56 1.197.56 2.09h-.002c0 .448-.064.858-.191 1.23a2.65 2.65 0 0 1-.545.94 2.253 2.253 0 0 1-1.705.766c-.286 0-.544-.032-.778-.094a3.155 3.155 0 0 1-.707-.293v2.318h-.93v-7.56h.93v.578c.248-.208.525-.38.83-.518.31-.143.639-.215.989-.215zm-9.262.004c.745 0 1.318.217 1.72.65.405.436.608 1.052.608 1.852v.506h-4.068c0 .339.052.636.156.889.102.251.24.457.416.617.172.158.377.277.611.355.237.08.495.12.778.12.377 0 .755-.073 1.135-.221.382-.153.654-.302.814-.446h.049v1.012a7.65 7.65 0 0 1-.957.332c-.328.09-.67.135-1.03.135-.916 0-1.63-.25-2.144-.744-.513-.497-.772-1.201-.772-2.114 0-.901.247-1.62.739-2.152.492-.528 1.14-.79 1.945-.79zm-.049.766c-.497 0-.894.146-1.191.437a1.742 1.742 0 0 0-.5 1.092l3.164.002c-.004-.488-.127-.865-.371-1.133-.24-.265-.608-.398-1.102-.398zm9.072.117c-.267 0-.535.057-.804.172-.27.117-.528.27-.776.457v3.127c.264.118.489.198.676.24.192.044.408.066.649.066.517 0 .921-.175 1.21-.525.29-.35.434-.865.434-1.549 0-.665-.114-1.165-.342-1.494-.227-.33-.576-.494-1.047-.494z" style="fill:#fff"/></svg>