<svg xmlns="http://www.w3.org/2000/svg" width="32" height="32"><path d="M12.3 11.69H5.633v-1.03l4.811-6.072H5.735v-1.16h6.439v.985l-4.836 6.09H12.3Zm3.463-9.648h-1.574V.607h1.57zm-.09 9.647h-1.39V3.423h1.39zm9.447-.94q0 2.097-.952 3.082-.953.981-2.935.981-.659 0-1.288-.094-.621-.09-1.227-.261v-1.419h.074q.34.135 1.08.327.74.197 1.48.197.71 0 1.172-.168.466-.172.728-.474.258-.286.368-.695.11-.409.11-.908v-.756q-.625.503-1.206.756-.568.246-1.455.246-1.48 0-2.35-1.067-.867-1.071-.867-3.017 0-1.063.298-1.836.303-.777.818-1.337.482-.523 1.169-.813.687-.294 1.37-.294.715 0 1.197.147.49.139 1.026.437l.09-.355h1.3zm-1.39-1.333V4.911q-.552-.249-1.034-.355-.474-.11-.944-.11-1.145 0-1.807.768-.654.773-.654 2.236 0 1.39.486 2.105.487.72 1.62.72.604 0 1.21-.23.612-.236 1.123-.629zM7.894 28.344h-1.39v-4.702q0-.572-.066-1.067-.065-.502-.245-.784-.184-.311-.531-.458-.348-.156-.9-.156-.572 0-1.193.282-.622.278-1.19.716v6.169H.985V16.836h1.39v4.166q.65-.54 1.345-.847.695-.302 1.43-.302 1.333 0 2.036.805.704.81.704 2.322zm9.59-3.986h-6.087q0 .76.233 1.328.229.565.625.924.385.356.912.532.531.18 1.165.18.846 0 1.697-.332.858-.343 1.218-.666h.073v1.513q-.703.298-1.43.498-.736.2-1.542.2-2.056 0-3.209-1.111-1.152-1.116-1.152-3.164 0-2.024 1.103-3.218 1.104-1.185 2.911-1.185 1.672 0 2.575.973.908.977.908 2.772zm-1.353-1.063q-.008-1.096-.556-1.697-.54-.596-1.648-.596-1.116 0-1.782.654-.654.662-.748 1.635zm4.864 5.049h-1.39V16.836h1.39zm10.016-4.231q0 1.005-.286 1.84-.286.829-.814 1.405-.486.548-1.152.85-.655.295-1.399.295-.641 0-1.165-.139-.519-.139-1.058-.437v3.466h-1.39V20.082h1.39v.866q.556-.466 1.242-.776.695-.32 1.48-.32 1.492 0 2.318 1.133.838 1.124.838 3.128zm-1.43.04q0-1.496-.512-2.236-.51-.74-1.566-.74-.6 0-1.205.258-.605.262-1.161.683v4.68q.592.266 1.013.36.43.098.97.098 1.16 0 1.81-.785.65-.785.65-2.322z" style="fill:#fff;stroke-width:4.08795"/></svg>